<?xml version="1.0" encoding="UTF-8" standalone="no"?>
<!-- Generator: Adobe Illustrator 13.0.0, SVG Export Plug-In . SVG Version: 6.00 Build 14948)  -->

<svg
   xmlns:dc="http://purl.org/dc/elements/1.1/"
   xmlns:cc="http://creativecommons.org/ns#"
   xmlns:rdf="http://www.w3.org/1999/02/22-rdf-syntax-ns#"
   xmlns:svg="http://www.w3.org/2000/svg"
   xmlns="http://www.w3.org/2000/svg"
   xmlns:sodipodi="http://sodipodi.sourceforge.net/DTD/sodipodi-0.dtd"
   xmlns:inkscape="http://www.inkscape.org/namespaces/inkscape"
   version="1.1"
   id="Calque_1"
   x="0px"
   y="0px"
   width="530.973px"
   height="530.973px"
   viewBox="0 0 530.973 530.973"
   enable-background="new 0 0 530.973 530.973"
   xml:space="preserve"
   inkscape:version="0.91 r13725"
   sodipodi:docname="loader.svg"><metadata
     id="metadata4190"><rdf:RDF><cc:Work
         rdf:about=""><dc:format>image/svg+xml</dc:format><dc:type
           rdf:resource="http://purl.org/dc/dcmitype/StillImage" /></cc:Work></rdf:RDF></metadata><defs
     id="defs4188" /><sodipodi:namedview
     pagecolor="#ffffff"
     bordercolor="#666666"
     borderopacity="1"
     objecttolerance="10"
     gridtolerance="10"
     guidetolerance="10"
     inkscape:pageopacity="0"
     inkscape:pageshadow="2"
     inkscape:window-width="2560"
     inkscape:window-height="1328"
     id="namedview4186"
     showgrid="false"
     inkscape:zoom="2.0377683"
     inkscape:cx="265.48651"
     inkscape:cy="265.48651"
     inkscape:window-x="0"
     inkscape:window-y="60"
     inkscape:window-maximized="1"
     inkscape:current-layer="Calque_1" /><path
     fill="#0099FF"
     d="M320.622,16.038c-48.13-10.56-96.075-6.789-139.409,8.433l205.646,142.285L363.887,29.585  C350.117,23.897,335.676,19.34,320.622,16.038z M381.61,37.721l41.565,244.095l79.798-112.224  C480.031,113.27,437.342,65.91,381.61,37.721z M164.624,30.954C107.809,55.459,60.469,100.197,33.57,158.183l248.56-46.176  L164.624,30.954z M508.526,184.605L367.76,388.57l135.075-25.795c5.425-13.334,9.788-27.293,12.978-41.823l1.161-5.589  C525.838,270.157,522.227,225.371,508.526,184.605z M165.219,149.9L26.793,174.226c-4.543,11.86-8.283,24.22-11.088,37.004  C5.067,259.717,8.992,308.02,24.5,351.609L165.219,149.9z M107.782,257.134L31.555,369.377  c24.248,54.834,67.436,100.631,123.173,127.418L107.782,257.134z M496.049,377.989l-242.225,46.989l111.375,76.992  C421.459,478.19,468.575,434.608,496.049,377.989z M146.782,370.741l23.439,132.869c12.988,5.211,26.556,9.434,40.676,12.53  c47.857,10.5,95.541,6.83,138.681-8.18L146.782,370.741z"
     id="path4184"
     style="fill:#888888;fill-opacity:1" /></svg>